<svg aria-hidden="true" style="position: absolute; width: 0; height: 0; overflow: hidden;" version="1.1" xmlns="http://www.w3.org/2000/svg" xmlns:xlink="http://www.w3.org/1999/xlink">
<defs>
<symbol id="icon-logo" viewBox="0 0 32 32">
<path d="M-0.75 16v16.75h33.5v-33.5h-33.5v16.75zM19.54 5.521c0.082 0.098 0.095 0.173 0.042 0.272-0.075 0.144-0.193 0.16-0.314 0.046-0.118-0.111-0.121-0.176-0.010-0.288 0.101-0.098 0.209-0.111 0.281-0.029zM20.269 5.548c0.046 0.042 0.082 0.111 0.082 0.151 0 0.092-0.121 0.226-0.203 0.226s-0.222-0.144-0.222-0.229c0-0.082 0.138-0.229 0.213-0.229 0.029 0 0.088 0.036 0.131 0.082zM20.979 5.521c0.115 0.105 0.039 0.402-0.101 0.402-0.101 0-0.232-0.128-0.232-0.226 0-0.199 0.193-0.304 0.334-0.176zM21.699 5.521c0.069 0.062 0.082 0.268 0.019 0.33-0.049 0.049-0.206 0.052-0.291 0.006-0.079-0.042-0.085-0.216-0.010-0.321 0.059-0.085 0.196-0.095 0.281-0.016zM18.81 5.603c0.075 0.134 0.019 0.268-0.124 0.281-0.196 0.019-0.295-0.151-0.18-0.314 0.072-0.105 0.239-0.088 0.304 0.033zM21.699 6.762l-0.010 0.275-13.285-0.016 0.010 1.747c0.013 1.721 0.013 1.747-0.052 1.773-0.036 0.013-0.115 0.026-0.17 0.026-0.059 0.003-0.138 0.033-0.17 0.065-0.062 0.062-0.062 0.059-0.082-0.072-0.019-0.124-0.082-2.99-0.085-3.756v-0.314l13.855-0.006-0.010 0.278zM24.522 6.657c0 0-0.003 0.484-0.010 1.073l-0.010 1.073-1.112-0.010-1.112-0.007 0.016-0.095c0.010-0.052 0.019-0.54 0.019-1.089v-0.995l1.106 0.023c0.605 0.013 1.103 0.023 1.103 0.026zM26.050 7.039c0.105 0.056 0.203 0.324 0.203 0.553-0.003 0.285-0.079 0.442-0.232 0.494-0.164 0.052-0.399 0.042-0.471-0.023-0.128-0.115-0.17-0.661-0.069-0.864 0.095-0.193 0.363-0.268 0.569-0.16zM12.068 7.609c0.065 0.013 0.105 0.039 0.105 0.072 0 0.059 0.186 0.239 0.249 0.239 0.023 0 0.049 0.013 0.062 0.033 0.019 0.033-0.164-0.026-0.249-0.082-0.026-0.019-0.075-0.069-0.105-0.115-0.029-0.042-0.056-0.062-0.056-0.039 0 0.065 0.062 0.17 0.101 0.17 0.049 0 0.128 0.085 0.124 0.138 0 0.033-0.007 0.033-0.019 0-0.007-0.019-0.036-0.039-0.059-0.039s-0.049-0.016-0.056-0.039c-0.007-0.019-0.033-0.026-0.052-0.013-0.056 0.033-0.049 0.088 0.007 0.079 0.026-0.007 0.052 0.003 0.059 0.023 0.010 0.036-2.581 0.088-2.64 0.052-0.016-0.010 0.019-0.029 0.082-0.039l0.115-0.019-0.121-0.007c-0.065 0-0.124 0.013-0.131 0.036-0.010 0.023-0.023 0.019-0.036-0.016-0.016-0.046 0-0.056 0.085-0.059 0.059-0.003 0.079-0.010 0.049-0.019-0.088-0.023-0.072-0.075 0.049-0.17 0.079-0.062 0.069-0.019-0.013 0.059l-0.069 0.065 0.069-0.019c0.056-0.013 0.065-0.006 0.046 0.039-0.013 0.042-0.010 0.052 0.019 0.036 0.023-0.016 0.036-0.056 0.026-0.088-0.010-0.036-0.003-0.056 0.010-0.046 0.016 0.010 0.056-0.019 0.092-0.065 0.072-0.092 0.121-0.108 0.092-0.033-0.010 0.026-0.003 0.049 0.013 0.049 0.019 0 0.033 0.013 0.033 0.029s-0.029 0.023-0.062 0.013c-0.042-0.010-0.075 0.006-0.101 0.056-0.036 0.065-0.033 0.069 0.039 0.029 0.042-0.023 0.101-0.039 0.134-0.033 0.052 0.006 0.056 0 0.023-0.065-0.036-0.062-0.033-0.069 0.013-0.052 0.039 0.016 0.052 0.003 0.052-0.052 0-0.059-0.007-0.062-0.033-0.023-0.016 0.026-0.033 0.033-0.033 0.013 0-0.023-0.036-0.046-0.082-0.052-0.046-0.010-0.082-0.003-0.082 0.013s-0.023 0.052-0.049 0.078c-0.026 0.029-0.049 0.036-0.049 0.016 0-0.016-0.019-0.036-0.039-0.046-0.023-0.006-0.016-0.010 0.013-0.006 0.075 0.013 0.105-0.036 0.039-0.062-0.082-0.029-0.209-0.023-0.209 0.013 0 0.016-0.016 0.033-0.036 0.033-0.016 0-0.023-0.016-0.013-0.033 0.013-0.019-0.065-0.033-0.209-0.033-0.226 0-0.232 0.003-0.232 0.082 0 0.046 0.016 0.082 0.036 0.082 0.026 0 0.026 0.013 0 0.046-0.033 0.036-0.026 0.049 0.019 0.059 0.052 0.010 0.049 0.016-0.013 0.052-0.075 0.042-0.075 0.039-0.075-0.164v-0.206l1.479 0.006c0.815 0.006 1.531 0.016 1.59 0.026zM21.647 8.302c-0.010 0.389-0.026 0.716-0.036 0.723-0.006 0.007-0.105-0.059-0.219-0.147-0.216-0.17-0.455-0.321-0.648-0.409-0.429-0.199-0.68-0.295-0.844-0.324-0.105-0.016-0.883-0.029-1.757-0.029-1.462 0.003-2.673-0.026-2.575-0.056 0.019-0.010 0.029-0.029 0.019-0.046-0.010-0.019-0.003-0.052 0.019-0.079 0.029-0.033 0.026-0.062-0.003-0.121-0.036-0.072-0.036-0.072 0.023-0.026 0.033 0.029 0.108 0.052 0.161 0.056 0.069 0.003 0.075 0 0.023-0.013-0.039-0.006-0.065-0.029-0.052-0.046 0.010-0.016 0.033-0.019 0.052-0.010 0.023 0.013 0.026 0.006 0.013-0.013-0.013-0.023-0.007-0.039 0.016-0.039s0.029-0.010 0.019-0.019c-0.013-0.013-0.042-0.006-0.065 0.013-0.026 0.023-0.056 0.029-0.065 0.016-0.013-0.010-0.023-0.003-0.023 0.019s-0.013 0.029-0.033 0.019c-0.049-0.029-0.039-0.124 0.010-0.095 0.029 0.016 0.029 0.010-0.003-0.023-0.036-0.039-0.046-0.039-0.072 0.003-0.016 0.026-0.033 0.033-0.033 0.016-0.003-0.019-0.019 0.003-0.036 0.046-0.023 0.062-0.039 0.069-0.079 0.036-0.026-0.019-0.062-0.029-0.079-0.016-0.023 0.013-0.026 0-0.013-0.036 0.016-0.046 0.010-0.049-0.049-0.016-0.085 0.046-0.141 0.046-0.062 0 0.092-0.052 0.216-0.059 0.196-0.013-0.007 0.023 0 0.052 0.019 0.065 0.019 0.010 0.036-0.006 0.036-0.042 0-0.033 0.010-0.072 0.023-0.082 0.010-0.013 1.397-0.023 3.078-0.023l3.059 0.003-0.023 0.707zM12.303 7.71c0 0.046-0.013 0.075-0.033 0.062-0.016-0.010-0.033-0.049-0.033-0.085 0-0.033 0.016-0.062 0.033-0.062 0.019 0 0.033 0.039 0.033 0.085zM9.588 7.756c0 0.016-0.007 0.033-0.013 0.033-0.010 0-0.026-0.016-0.036-0.033-0.010-0.019-0.003-0.033 0.013-0.033 0.019 0 0.036 0.013 0.036 0.033zM9.506 7.824c-0.013 0.016-0.039 0.029-0.059 0.026-0.029 0-0.026-0.006 0.003-0.019 0.019-0.006 0.029-0.033 0.019-0.049-0.013-0.023-0.007-0.026 0.016-0.013 0.019 0.013 0.029 0.039 0.019 0.056zM12.467 7.821c0 0.036-0.023 0.065-0.049 0.065s-0.049-0.029-0.049-0.065c0-0.036 0.023-0.065 0.049-0.065s0.049 0.029 0.049 0.065zM14.597 7.844c-0.039 0.065-0.046 0.046-0.016-0.039 0.013-0.029 0.029-0.046 0.036-0.036 0.010 0.006 0 0.042-0.019 0.075zM15.555 7.929c-0.023 0.059-0.111 0.079-0.111 0.023 0-0.019 0.023-0.033 0.052-0.033 0.036 0 0.046-0.016 0.029-0.059-0.013-0.039-0.010-0.046 0.016-0.019 0.019 0.019 0.026 0.059 0.013 0.088zM14.158 7.874c-0.010 0.010-0.039 0.013-0.062 0.003-0.026-0.010-0.016-0.019 0.019-0.019 0.036-0.003 0.056 0.006 0.042 0.016zM9.48 7.906c-0.010 0.010-0.039 0.013-0.062 0.003-0.026-0.010-0.016-0.019 0.019-0.019 0.036-0.003 0.056 0.006 0.042 0.016zM13.154 7.92c0-0.029 0.013-0.029 0.042-0.006 0.019 0.016 0.075 0.039 0.121 0.049s-0.023 0.016-0.154 0.013c-0.131 0-0.229-0.010-0.222-0.026 0.010-0.013 0.049-0.016 0.088-0.003 0.052 0.013 0.062 0.006 0.042-0.029-0.026-0.039-0.019-0.039 0.026 0 0.042 0.033 0.056 0.033 0.056 0.003zM13.873 7.939c0 0.006-0.023 0.013-0.049 0.013s-0.049-0.013-0.049-0.033c0-0.016 0.023-0.023 0.049-0.013 0.026 0.013 0.049 0.026 0.049 0.033zM14.103 7.936c0.016-0.010 0.039 0 0.049 0.019 0.016 0.023-0.019 0.029-0.101 0.023-0.065-0.006-0.128-0.029-0.138-0.052-0.010-0.029 0.010-0.033 0.075-0.006 0.049 0.019 0.098 0.026 0.115 0.016zM9.359 7.933c0 0.006-0.023 0.029-0.049 0.052-0.039 0.033-0.049 0.033-0.049-0.013 0-0.029 0.023-0.052 0.049-0.052s0.049 0.006 0.049 0.013zM14.299 7.952c0 0.016-0.026 0.033-0.056 0.033-0.049 0-0.052-0.006-0.010-0.033 0.062-0.039 0.065-0.039 0.065 0zM15.359 7.998c-0.016 0.046-0.029 0.049-0.049 0.016-0.016-0.026-0.010-0.056 0.013-0.069 0.049-0.029 0.062-0.013 0.036 0.052zM12.683 8.011c-0.033 0.007-0.072 0-0.092-0.019s0-0.023 0.062-0.013c0.069 0.016 0.075 0.023 0.029 0.033zM13.504 7.972c-0.010 0.010-0.039 0.013-0.062 0.003-0.026-0.010-0.016-0.019 0.019-0.019 0.036-0.003 0.056 0.006 0.042 0.016zM14.538 7.975c-0.023 0.006-0.062 0.006-0.082 0-0.023-0.010-0.007-0.016 0.039-0.016s0.062 0.006 0.042 0.016zM9.022 8.122c-0.010 0.023-0.016 0.007-0.016-0.039s0.007-0.062 0.016-0.042c0.007 0.023 0.007 0.062 0 0.082zM13.082 8.62l0.010 0.291-0.173-0.019c-0.095-0.013-0.226-0.023-0.288-0.023h-0.115l-0.003-0.262-0.007-0.258 0.219-0.013c0.379-0.019 0.347-0.046 0.356 0.285zM13.972 8.659v0.275h-0.589v-0.553l0.272-0.010c0.147-0.007 0.278-0.007 0.295 0 0.013 0.007 0.023 0.134 0.023 0.288zM14.881 8.652l0.010 0.281h-0.625v-0.572l0.301 0.007 0.304 0.003 0.010 0.281zM11.878 11.224v2.519h-1.734v-5.038h1.734v2.519zM19.785 8.751c0.006 0.007 0.016 0.478 0.026 1.047 0.013 0.969 0.010 1.037-0.042 1.021-0.265-0.085-2.748-0.199-3.428-0.164l-0.363 0.023-0.023-0.716c-0.019-0.612-0.010-1.080 0.029-1.207 0.007-0.029 3.772-0.036 3.802-0.003zM20.512 9.035c0.268 0.154 0.478 0.314 1.099 0.85 0.602 0.517 0.85 0.769 1.099 1.122 0.331 0.468 0.739 1.456 0.815 1.966 0.016 0.128 0.033 0.35 0.033 0.497v0.272h-1.593l-0.023-0.193c-0.029-0.255-0.17-0.668-0.353-1.034-0.219-0.432-0.615-0.863-1.289-1.41-0.098-0.078-0.118-0.111-0.092-0.147 0.023-0.029 0.036-0.334 0.039-0.863 0.006-0.779 0.026-1.162 0.062-1.162 0.010 0 0.101 0.046 0.203 0.101zM7.429 9.359v0.196h-0.89c-0.782 0-0.896-0.007-0.949-0.056-0.069-0.059-0.079-0.222-0.016-0.262 0.019-0.013 0.409-0.033 0.857-0.042 0.452-0.010 0.857-0.023 0.909-0.026 0.088-0.007 0.088-0.003 0.088 0.19zM13.088 9.522v0.295h-0.589v-0.275c0-0.318-0.023-0.301 0.386-0.311l0.203-0.003v0.295zM14.888 9.522v0.295h-0.209c-0.115 0-0.255 0.010-0.311 0.019l-0.101 0.019v-0.592l0.272-0.013c0.147-0.003 0.288-0.013 0.311-0.016 0.029-0.003 0.039 0.072 0.039 0.288zM13.972 9.536v0.278l-0.281 0.010c-0.154 0.007-0.288 0.003-0.295-0.003s-0.013-0.138-0.013-0.288v-0.272h0.589v0.275zM24.696 9.408c0.016 0.016 0.023 10.073 0.006 10.969l-0.016 0.857h-7.079c-3.896 0-7.083-0.003-7.089-0.010-0.003-0.003-0.013-0.115-0.019-0.242l-0.013-0.236h5.352c2.941 0.003 6.029 0 6.861 0l1.511-0.003-0.013-5.424c-0.006-2.98-0.006-5.542 0.006-5.689l0.019-0.268 0.232 0.019c0.128 0.010 0.236 0.023 0.242 0.026zM22.278 9.401c-0.006 0.003-0.036 0.026-0.065 0.049-0.042 0.033-0.062 0.029-0.095-0.010-0.036-0.042-0.026-0.049 0.065-0.049 0.062 0 0.101 0.003 0.095 0.010zM14.888 10.458v0.308h-0.291c-0.34 0-0.331 0.010-0.331-0.347v-0.242l0.19-0.003c0.101-0.003 0.232-0.016 0.285-0.026 0.056-0.013 0.108-0.019 0.124-0.013 0.013 0.007 0.023 0.154 0.023 0.324zM7.478 10.18c0.013 0.019 0.013 0.115 0 0.213l-0.019 0.177h-0.52c-0.442 0-0.52-0.007-0.536-0.052-0.036-0.092-0.019-0.226 0.033-0.301 0.046-0.069 0.072-0.072 0.536-0.072 0.311 0 0.494 0.013 0.507 0.036zM13.082 10.445l-0.010 0.304h-0.272l-0.275-0.003-0.007-0.301-0.010-0.301h0.582l-0.010 0.301zM13.972 10.455v0.311h-0.589v-0.622h0.589v0.311zM5.858 11.217c0 0.161-0.006 0.298-0.013 0.304s-0.141 0.010-0.295 0.003l-0.281-0.010v-0.586h0.589v0.288zM6.709 11.224v0.295h-0.556v-0.589h0.556v0.295zM7.599 11.237l-0.010 0.281h-0.553v-0.553l0.272-0.010c0.147-0.007 0.275-0.007 0.285-0.003 0.010 0 0.013 0.131 0.006 0.285zM8.443 11.243v0.275h-0.226c-0.206 0-0.226-0.007-0.245-0.075-0.023-0.082-0.026-0.461-0.006-0.484 0.006-0.007 0.118-0.010 0.245-0.003l0.232 0.013v0.275zM13.088 11.371v0.314l-0.566-0.019-0.007-0.569 0.115-0.013c0.062-0.007 0.193-0.013 0.288-0.016l0.17-0.007v0.311zM13.972 11.371v0.314l-0.572-0.019-0.019-0.569 0.157-0.013c0.085-0.007 0.219-0.013 0.298-0.016l0.138-0.007v0.311zM17.669 12.401v1.341h-1.659l-0.019-0.959c-0.013-0.523-0.023-1.122-0.023-1.322v-0.37l0.844-0.010c0.461-0.003 0.844-0.010 0.85-0.016 0.003-0.003 0.006 0.595 0.006 1.335zM14.855 11.312c0 0.376 0.003 0.37-0.314 0.37h-0.275v-0.553l0.108-0.013c0.056-0.007 0.19-0.016 0.295-0.016l0.186-0.007v0.219zM23.613 11.296c-0.010 0.026-0.019 0.016-0.019-0.019-0.003-0.036 0.006-0.056 0.016-0.042 0.010 0.010 0.013 0.039 0.003 0.062zM19.448 11.423c0.262 0.088 0.478 0.193 0.393 0.193-0.016 0-0.046-0.013-0.062-0.029-0.052-0.046-0.442-0.164-0.671-0.199-0.347-0.056-0.452-0.101-0.18-0.079 0.128 0.010 0.36 0.059 0.52 0.115zM19.023 11.459c-0.010 0.013-0.029 0.026-0.049 0.026-0.016 0-0.029-0.013-0.029-0.026 0-0.016 0.023-0.029 0.049-0.029s0.039 0.013 0.029 0.029zM19.174 11.554c0 0.033-0.013 0.062-0.033 0.062-0.075 0-0.029 0.128 0.059 0.161l0.088 0.036-0.098-0.016c-0.052-0.010-0.154-0.019-0.219-0.023-0.072-0.003-0.124-0.023-0.124-0.046 0-0.026 0.036-0.036 0.098-0.029 0.069 0.010 0.098 0 0.098-0.033 0-0.026-0.029-0.039-0.082-0.033-0.092 0.010-0.105-0.023-0.033-0.082 0.039-0.033 0.049-0.033 0.049 0.003 0 0.039 0.006 0.039 0.029 0 0.019-0.029 0.036-0.033 0.049-0.007 0.036 0.056 0.085 0.010 0.062-0.052-0.013-0.036-0.010-0.046 0.016-0.029 0.023 0.013 0.039 0.052 0.039 0.088zM19.337 11.623c0 0.013-0.026 0.026-0.056 0.026-0.052 0-0.052 0.007-0.010 0.036 0.039 0.029 0.039 0.033-0.010 0.016-0.033-0.010-0.078-0.019-0.098-0.019-0.023-0.003-0.010-0.026 0.029-0.059 0.036-0.033 0.062-0.079 0.056-0.105-0.010-0.033 0.003-0.026 0.036 0.013 0.029 0.036 0.052 0.075 0.052 0.092zM19.419 11.544c-0.010 0.010-0.036 0-0.059-0.023-0.029-0.033-0.026-0.036 0.019-0.016 0.033 0.010 0.049 0.029 0.039 0.039zM18.28 11.655c-0.010 0.023-0.016 0.007-0.016-0.039s0.006-0.062 0.016-0.042c0.006 0.023 0.006 0.062 0 0.082zM18.814 11.747c0 0.016-0.006 0.033-0.013 0.033-0.010 0-0.026-0.016-0.036-0.033-0.010-0.019-0.003-0.033 0.013-0.033 0.019 0 0.036 0.013 0.036 0.033zM20.253 11.901c0 0.010-0.019 0-0.042-0.019-0.026-0.019-0.052-0.026-0.065-0.016-0.010 0.010-0.036-0.013-0.056-0.056l-0.039-0.072 0.101 0.072c0.056 0.039 0.101 0.082 0.101 0.092zM8.384 11.842c0.052 0.003 0.056 0.206 0.049 3.128l-0.007 3.124h-0.53l-0.003-1.613c-0.003-0.883 0.010-1.904 0.029-2.264s0.033-1.053 0.029-1.541l-0.006-0.883 0.19 0.023c0.108 0.013 0.219 0.026 0.249 0.026zM19.468 11.822c0.039-0.013 0.039-0.010 0.003 0.016-0.049 0.036-0.167 0.013-0.167-0.033 0-0.016 0.023-0.016 0.059 0 0.029 0.016 0.078 0.023 0.105 0.016zM5.858 12.14v0.295h-0.144c-0.079 0-0.209-0.010-0.295-0.019l-0.151-0.023v-0.546h0.589v0.295zM6.709 12.13v0.288l-0.268-0.003-0.272-0.007-0.019-0.563h0.559v0.285zM7.612 11.917c-0.010 0.042-0.016 0.173-0.016 0.295l-0.003 0.222h-0.556v-0.589h0.295c0.288 0 0.295 0.003 0.281 0.072zM26.963 12.185c0.023 0.046 0.029 0.118 0.016 0.161l-0.019 0.082-0.841 0.013c-0.488 0.007-0.86 0-0.883-0.016-0.049-0.036-0.056-0.151-0.010-0.219 0.026-0.039 0.167-0.052 0.808-0.065 0.429-0.010 0.805-0.023 0.837-0.026s0.072 0.026 0.092 0.072zM5.858 13.023v0.295h-0.589v-0.589h0.589v0.295zM6.716 13.023l-0.010 0.295h-0.553v-0.589h0.572l-0.010 0.295zM7.592 13.023v0.295h-0.556v-0.589h0.556v0.295zM27.889 12.945c0.062 0.059 0.069 0.252 0.013 0.301-0.029 0.023-0.268 0.029-0.68 0.019l-0.638-0.016-0.019-0.324 0.632-0.010c0.347-0.003 0.635-0.010 0.638-0.016 0.003-0.003 0.029 0.016 0.056 0.046zM26.115 13.006c0.010 0.046 0.010 0.118 0 0.164-0.013 0.082-0.016 0.082-0.402 0.088-0.216 0.003-0.422 0.007-0.461 0.007-0.078 0.003-0.138-0.141-0.108-0.268 0.016-0.072 0.026-0.072 0.488-0.072h0.471l0.013 0.082zM4.102 13.736c0.082 0.072 0.069 0.222-0.026 0.318-0.118 0.121-0.206 0.098-0.318-0.082-0.069-0.111-0.026-0.219 0.111-0.278 0.111-0.046 0.134-0.039 0.232 0.042zM6.742 13.766c0 0.069-0.010 0.18-0.023 0.252l-0.019 0.128-0.278-0.023c-0.154-0.010-0.288-0.026-0.295-0.036-0.006-0.007-0.023-0.108-0.029-0.226l-0.019-0.216h0.664v0.121zM7.583 13.873c-0.006 0.124-0.019 0.239-0.033 0.249-0.013 0.013-0.128 0.010-0.258-0.007l-0.239-0.029-0.010-0.177c-0.016-0.262-0.013-0.265 0.288-0.265h0.262l-0.010 0.229zM13.864 13.896c-0.007 0.052-0.013 0.010-0.013-0.088s0.007-0.141 0.013-0.092c0.007 0.052 0.007 0.131 0 0.18zM26.541 13.7c0.065 0.059 0.075 0.177 0.026 0.275-0.033 0.059-0.075 0.062-0.736 0.062h-0.703v-0.327l0.533-0.003c0.435 0 0.651-0.016 0.805-0.059 0.010 0 0.042 0.019 0.075 0.052zM27.362 13.749c0.082 0.108 0.052 0.242-0.062 0.295-0.108 0.049-0.183 0.007-0.222-0.131-0.023-0.079-0.016-0.124 0.026-0.186 0.069-0.108 0.17-0.098 0.258 0.023zM13.527 13.749c0.029 0.111 0.016 0.186-0.013 0.092-0.023-0.069-0.026-0.062-0.029 0.056-0.003 0.131 0.003 0.141 0.088 0.144 0.075 0.007 0.079 0.007 0.016 0.019-0.042 0.007-0.075 0.029-0.075 0.046s-0.023 0.029-0.049 0.029c-0.039 0-0.049-0.046-0.049-0.206 0-0.115 0.010-0.219 0.023-0.229 0.039-0.039 0.069-0.023 0.088 0.049zM28.615 13.703c0.065 0.042 0.115 0.17 0.095 0.236-0.033 0.108-0.115 0.128-0.475 0.115l-0.343-0.013-0.010-0.088c-0.006-0.046-0.003-0.121 0.006-0.164 0.019-0.072 0.039-0.075 0.291-0.088 0.147-0.003 0.298-0.013 0.334-0.016s0.082 0.007 0.101 0.019zM5.054 13.883c0.013 0.085 0.016 0.167 0.003 0.18s-0.147 0.029-0.298 0.036l-0.275 0.010v-0.18c0-0.209 0.010-0.216 0.343-0.206l0.196 0.003 0.029 0.157zM13.776 13.808c0 0.016-0.023 0.033-0.049 0.033s-0.049-0.016-0.049-0.033c0-0.019 0.023-0.033 0.049-0.033s0.049 0.013 0.049 0.033zM11.113 14.201h0.766v2.548l-0.213 0.245c-0.115 0.134-0.488 0.507-0.825 0.834-0.605 0.582-0.615 0.592-0.641 0.504-0.016-0.052-0.036-1.011-0.046-2.133l-0.019-2.041 0.108 0.019c0.059 0.013 0.452 0.023 0.87 0.023zM17.678 15.735l-0.010 1.564 0.713 0.019c0.762 0.019 0.959 0 1.237-0.124l0.17-0.075-0.003 0.959-0.006 0.959-0.144 0.019c-0.183 0.026-3.383 0.026-3.536 0l-0.115-0.019 0.003-1.116c0-0.615 0.003-1.704 0.007-2.418l0.007-1.302 0.795-0.010c0.435-0.003 0.815-0.010 0.841-0.016 0.042-0.007 0.049 0.183 0.042 1.56zM23.547 14.691c-0.019 0.546-0.059 0.716-0.265 1.207-0.124 0.295-0.445 0.808-0.703 1.126-0.101 0.124-0.232 0.285-0.291 0.36-0.17 0.216-0.599 0.641-0.756 0.749-0.134 0.095-0.141 0.095-0.118 0.026 0.019-0.065 0.013-0.072-0.036-0.052s-0.052 0.016-0.023-0.016c0.033-0.033 0.052-0.029 0.092 0.003 0.042 0.036 0.046 0.033 0.029-0.013-0.013-0.036 0.010-0.092 0.072-0.157 0.079-0.085 0.065-0.079-0.085 0.036-0.098 0.072-0.193 0.134-0.209 0.134-0.019 0-0.098 0.056-0.18 0.124-0.203 0.17-0.52 0.383-0.648 0.435-0.059 0.026-0.108 0.059-0.108 0.072 0 0.016-0.013 0.019-0.029 0.006-0.019-0.010-0.033-0.36-0.036-0.821 0-0.452-0.016-0.831-0.033-0.867-0.052-0.095-0.042-0.111 0.157-0.242 0.452-0.301 0.991-0.936 1.276-1.505 0.173-0.347 0.242-0.553 0.301-0.9l0.036-0.213h1.577l-0.019 0.507zM27.901 14.534c0.046 0.046 0.052 0.219 0.010 0.281-0.023 0.036-0.278 0.042-1.397 0.026l-1.371-0.016-0.019-0.331h1.367c1.024 0 1.38 0.010 1.41 0.039zM7.36 14.58c0.101 0.019 0.105 0.026 0.095 0.173l-0.010 0.151-0.484 0.010c-0.517 0.010-0.612-0.013-0.612-0.134 0-0.108 0.065-0.18 0.18-0.196 0.167-0.023 0.723-0.023 0.831-0.003zM26.338 15.342c0.069 0.019 0.082 0.042 0.082 0.134v0.115l-0.612 0.010-0.615 0.007v-0.295l0.533 0.003c0.291 0.003 0.566 0.013 0.612 0.026zM6.614 15.444c0.17 0.075 0.334 0.085 0.386 0.019 0.023-0.026 0.092-0.056 0.154-0.069 0.216-0.039 0.35 0.131 0.229 0.295-0.039 0.056-0.059 0.056-0.232 0.023-0.239-0.049-0.438-0.049-0.622-0.003-0.252 0.065-0.438-0.105-0.291-0.268 0.072-0.079 0.196-0.079 0.376 0.003zM26.217 16.098h0.219v0.239l-0.301-0.023c-0.164-0.010-0.422-0.019-0.572-0.019h-0.272v-0.092c0-0.052 0.010-0.105 0.026-0.118 0.013-0.016 0.17-0.019 0.35-0.006 0.18 0.010 0.425 0.019 0.55 0.019zM26.197 17.292c0.213 0.098 0.295 0.219 0.324 0.497 0.016 0.157 0.006 0.242-0.033 0.35-0.052 0.141-0.199 0.311-0.236 0.275-0.010-0.010 0.006-0.134 0.036-0.275 0.056-0.272 0.046-0.543-0.026-0.638-0.056-0.072-0.236-0.128-0.406-0.128-0.193 0-0.304 0.105-0.304 0.295 0 0.108-0.010 0.131-0.062 0.131-0.039 0-0.069 0.026-0.078 0.072-0.006 0.042-0.016 0.010-0.019-0.072-0.006-0.308 0.079-0.458 0.314-0.543 0.18-0.062 0.298-0.056 0.491 0.036zM15.46 17.319c0 0.003-0.007 0.396-0.016 0.873l-0.016 0.867-2.493 0.006c-2.058 0.006-2.496 0-2.496-0.036 0-0.049 0.445-0.533 1.148-1.246l0.484-0.491 1.691 0.010c0.932 0.006 1.694 0.013 1.698 0.016zM23.119 18.548c0.34 0.154 0.569 0.488 0.569 0.831 0 0.232-0.052 0.366-0.219 0.546-0.16 0.18-0.337 0.262-0.576 0.262-0.615 0-0.991-0.645-0.716-1.227 0.101-0.213 0.285-0.396 0.425-0.429 0.049-0.010 0.105-0.023 0.121-0.029 0.092-0.029 0.275-0.010 0.396 0.046zM20.727 18.692c-0.072 0.039-0.183 0.095-0.245 0.121-0.062 0.023-0.134 0.059-0.154 0.075-0.033 0.023-0.042 0.010-0.042-0.046 0-0.052 0.010-0.065 0.026-0.039 0.019 0.033 0.085 0.013 0.255-0.069 0.258-0.128 0.356-0.154 0.16-0.042zM9.827 18.683c0.013 0 0.023 0.478 0.019 1.060l-0.007 1.063-0.151 0.019c-0.082 0.010-0.324 0.016-0.533 0.010-0.295-0.006-0.386-0.019-0.386-0.052 0-0.026-0.016-0.033-0.039-0.016-0.059 0.036-0.124 0.042-0.124 0.010 0-0.013-0.029-0.033-0.065-0.042s-0.065-0.003-0.065 0.013c0 0.016-0.016 0.029-0.036 0.029-0.016 0-0.023-0.016-0.013-0.033 0.010-0.019-0.010-0.033-0.046-0.033s-0.075 0.013-0.085 0.033c-0.010 0.016-0.049 0.033-0.085 0.033-0.052 0-0.059-0.010-0.029-0.062 0.046-0.085 0.046-0.085-0.049-0.095-0.052-0.003-0.082 0.010-0.082 0.042 0 0.026-0.019 0.049-0.046 0.049s-0.039 0.029-0.036 0.082c0.006 0.046 0 0.082-0.013 0.082s-0.026-0.475-0.029-1.057c-0.006-0.579-0.016-1.080-0.026-1.112-0.016-0.056 0.029-0.059 0.942-0.042 0.527 0.010 0.972 0.016 0.985 0.019zM6.84 19.082c0 0.033 0.006 0.033 0.029 0 0.046-0.075 0.167 0.131 0.199 0.343 0.056 0.334 0.042 0.625-0.036 0.749-0.082 0.138-0.154 0.177-0.304 0.177-0.252 0-0.471-0.321-0.5-0.733-0.023-0.278-0.006-0.366 0.092-0.488 0.062-0.082 0.088-0.088 0.295-0.088 0.157 0 0.226 0.013 0.226 0.039zM8.148 20.678c0 0.016-0.013 0.033-0.033 0.033-0.016 0-0.033-0.016-0.033-0.033 0-0.019 0.016-0.033 0.033-0.033 0.019 0 0.033 0.013 0.033 0.033zM8.377 20.776c0 0.016-0.007 0.033-0.013 0.033-0.010 0-0.026-0.016-0.036-0.033-0.010-0.019-0.003-0.033 0.013-0.033 0.019 0 0.036 0.013 0.036 0.033zM16.092 22.114c0.088 0.101 0.177 0.213 0.196 0.249 0.029 0.052 0.036 0.016 0.039-0.186 0-0.258 0.033-0.324 0.118-0.252 0.039 0.033 0.046 0.115 0.039 0.419-0.010 0.356-0.013 0.379-0.079 0.389-0.049 0.006-0.108-0.046-0.239-0.222-0.095-0.124-0.183-0.229-0.199-0.229-0.013 0-0.019 0.059-0.010 0.128 0.026 0.193-0.013 0.37-0.082 0.356-0.046-0.010-0.059-0.072-0.082-0.402-0.013-0.216-0.016-0.409-0.010-0.432 0.029-0.072 0.151 0 0.308 0.183zM18.542 21.974c0.072 0.111 0.262 0.553 0.288 0.671 0.026 0.121-0.052 0.131-0.128 0.013-0.046-0.069-0.079-0.082-0.226-0.082-0.16 0-0.173 0.006-0.209 0.098-0.026 0.065-0.059 0.098-0.105 0.098-0.101 0-0.088-0.062 0.095-0.455 0.092-0.193 0.164-0.37 0.164-0.389 0-0.065 0.062-0.042 0.121 0.046zM20.462 21.938c0.026 0.029 0.082 0.108 0.121 0.18 0.042 0.072 0.082 0.131 0.092 0.131s0.052-0.075 0.092-0.164c0.059-0.134 0.085-0.164 0.154-0.164 0.046 0 0.085 0.006 0.085 0.013 0 0.010-0.062 0.128-0.138 0.268-0.108 0.203-0.134 0.281-0.131 0.409 0.003 0.242-0.101 0.196-0.134-0.059-0.006-0.075-0.059-0.199-0.115-0.278-0.121-0.177-0.186-0.386-0.121-0.386 0.026 0 0.065 0.023 0.095 0.049zM11.747 22.232v0.311h0.393v0.196h-0.523v-0.386c0-0.393 0.007-0.432 0.088-0.432 0.033 0 0.042 0.072 0.042 0.311zM13.121 22.003c0 0.079-0.010 0.082-0.18 0.082-0.177 0-0.18 0-0.18 0.098 0 0.095 0.007 0.098 0.147 0.098 0.134 0 0.147 0.006 0.147 0.082s-0.013 0.082-0.151 0.082c-0.124 0-0.147 0.010-0.138 0.056s0.042 0.059 0.157 0.059c0.138 0 0.147 0.006 0.157 0.088l0.010 0.092h-0.494v-0.818h0.262c0.258 0 0.262 0 0.262 0.082zM14.129 21.974c0.088 0.062 0.101 0.196 0.016 0.16-0.033-0.013-0.101-0.029-0.157-0.039-0.128-0.019-0.249 0.101-0.252 0.252-0.007 0.216 0.298 0.37 0.389 0.196 0.039-0.079 0.036-0.082-0.059-0.092-0.072-0.006-0.095-0.026-0.088-0.065s0.049-0.059 0.141-0.065c0.193-0.010 0.229 0.023 0.18 0.17-0.085 0.258-0.304 0.324-0.543 0.164-0.167-0.115-0.206-0.17-0.209-0.298 0-0.154 0.026-0.199 0.19-0.324 0.161-0.121 0.278-0.141 0.393-0.059zM15.32 22.003c-0.013 0.075-0.026 0.082-0.206 0.082h-0.193v0.203l0.147-0.019c0.164-0.026 0.219-0.006 0.19 0.062-0.010 0.033-0.065 0.049-0.161 0.049-0.141 0-0.144 0.003-0.144 0.101v0.101l0.19-0.013c0.183-0.010 0.186-0.006 0.196 0.079l0.010 0.092-0.559-0.006v-0.795l0.275-0.006 0.272-0.010-0.016 0.082zM17.453 21.967c0.151 0.062 0.249 0.213 0.249 0.379 0 0.199-0.157 0.347-0.406 0.376-0.098 0.013-0.196 0.016-0.219 0.010-0.029-0.010-0.042-0.128-0.042-0.412l-0.003-0.399h0.157c0.085 0 0.206 0.019 0.265 0.046zM19.857 22.036c0.056 0.065 0.101 0.138 0.101 0.16 0 0.052-0.131 0.199-0.199 0.222-0.036 0.013-0.029 0.029 0.023 0.078 0.039 0.033 0.098 0.101 0.128 0.151 0.056 0.092 0.056 0.092-0.033 0.092-0.082 0-0.115-0.026-0.268-0.219-0.033-0.039-0.088-0.075-0.124-0.082-0.059-0.010-0.065 0.006-0.056 0.144 0.013 0.151 0.010 0.157-0.072 0.157h-0.085v-0.818h0.242c0.236 0 0.245 0.003 0.343 0.115zM24.215 22.314c0.399 0 0.415 0.003 0.399 0.065-0.010 0.042-0.056 0.072-0.131 0.085-0.065 0.013-0.743 0.013-1.511 0.006-1.302-0.016-1.394-0.019-1.403-0.075-0.006-0.033 0.006-0.072 0.033-0.088 0.026-0.019 0.465-0.023 1.119-0.013 0.592 0.010 1.266 0.019 1.495 0.019zM10.824 22.386l-0.010 0.075-1.462 0.010-1.466 0.006v-0.164h2.948l-0.010 0.072zM8.803 23.197c0.206 0.056 0.468 0.236 0.579 0.402 0.203 0.301 0.222 0.622 0.059 0.946-0.108 0.213-0.186 0.301-0.37 0.409-0.128 0.075-0.203 0.088-0.664 0.121l-0.52 0.036v-0.543c0-0.298-0.010-0.739-0.019-0.982l-0.023-0.438 0.422 0.010c0.232 0.006 0.475 0.023 0.536 0.039zM11.256 23.335v0.206h-0.949v0.409h0.841l0.019 0.154c0.010 0.088 0.007 0.17-0.010 0.183-0.013 0.016-0.209 0.023-0.435 0.016l-0.412-0.010-0.010 0.209c-0.007 0.118 0.003 0.213 0.023 0.219s0.242 0.006 0.501 0.003l0.465-0.006v0.376h-1.357l-0.010-0.965-0.007-0.965 0.628-0.010c0.347-0.003 0.651-0.010 0.674-0.016 0.026-0.003 0.039 0.052 0.039 0.196zM21.663 23.165h0.618v0.36h-0.373c-0.203 0-0.438 0.010-0.523 0.019l-0.151 0.023v0.383h0.468c0.258 0 0.478 0.006 0.484 0.013s0.006 0.088 0.003 0.18l-0.013 0.167h-0.903l-0.013 0.196-0.010 0.196h1.030v0.393h-1.423l-0.013-1.97 0.101 0.019c0.056 0.010 0.376 0.019 0.716 0.019zM11.917 23.318c0.219 0.654 0.432 1.22 0.452 1.197 0.033-0.036 0.206-0.52 0.35-0.969l0.121-0.383h0.19c0.105 0 0.19 0.013 0.19 0.026 0 0.101-0.327 0.995-0.491 1.345-0.108 0.232-0.196 0.445-0.196 0.475 0 0.042-0.039 0.052-0.193 0.052-0.19 0-0.196-0.003-0.216-0.101-0.013-0.052-0.059-0.19-0.105-0.301-0.075-0.18-0.478-1.289-0.523-1.44-0.016-0.049 0.007-0.056 0.177-0.056h0.193l0.052 0.154zM14.92 23.361v0.196h-1.014v0.393h0.85v0.36h-0.406c-0.455 0-0.445-0.006-0.445 0.249v0.144h1.047v0.36h-0.645c-0.356 0-0.68 0.010-0.72 0.019l-0.075 0.019v-1.937h1.407v0.196zM15.712 23.793c0.003 0.347 0.010 0.697 0.010 0.775v0.141l0.376-0.010 0.373-0.013 0.042 0.18c0.019 0.098 0.036 0.18 0.033 0.183s-0.272 0.013-0.599 0.026l-0.592 0.023-0.019-0.222c-0.013-0.121-0.023-0.556-0.023-0.969v-0.743h0.393l0.007 0.628zM17.911 23.197c0.124 0.046 0.376 0.288 0.448 0.429 0.193 0.383 0.049 1.089-0.275 1.351-0.111 0.088-0.157 0.101-0.363 0.111-0.186 0.010-0.272 0-0.383-0.049-0.19-0.085-0.475-0.347-0.559-0.51-0.085-0.167-0.118-0.612-0.062-0.785 0.049-0.147 0.321-0.396 0.543-0.5 0.177-0.085 0.494-0.105 0.651-0.046zM20.008 23.309c0.258 0.18 0.353 0.311 0.366 0.52 0.016 0.242-0.108 0.458-0.34 0.599-0.186 0.111-0.321 0.144-0.605 0.144h-0.19v0.523h-0.193c-0.17 0-0.199-0.010-0.216-0.069-0.013-0.039-0.016-0.475-0.013-0.969l0.013-0.896 0.991 0.019 0.186 0.128zM23.917 23.266c0.222 0.134 0.386 0.308 0.412 0.442 0.052 0.272-0.085 0.582-0.308 0.7l-0.101 0.056 0.085 0.128c0.046 0.069 0.164 0.209 0.258 0.308l0.173 0.18-0.285 0.003-0.285 0.006-0.18-0.291-0.18-0.295-0.193 0.010-0.193 0.013 0.013 0.569h-0.393l-0.019-1.937 0.523 0.013c0.497 0.010 0.53 0.013 0.671 0.095zM10.929 25.831v0.082h-1.518c-1.498 0-1.518 0-1.502-0.065 0.016-0.062 0.052-0.065 1.315-0.075 0.713-0.003 1.387-0.010 1.502-0.016 0.196-0.006 0.203-0.003 0.203 0.075zM24.571 25.828c0 0.072-0.255 0.085-1.659 0.085-1.296 0-1.319 0-1.319-0.065s0.023-0.065 1.489-0.065c1.233 0 1.489 0.006 1.489 0.046z"></path>
<path d="M10.079 7.687c0 0.019 0.013 0.042 0.033 0.052s0.023-0.003 0.013-0.029c-0.023-0.059-0.046-0.069-0.046-0.023z"></path>
<path d="M11.207 7.723c0.003 0.039 0.033 0.092 0.065 0.124 0.059 0.052 0.059 0.052 0.019 0-0.023-0.029-0.033-0.069-0.023-0.085 0.010-0.019 0-0.049-0.023-0.069-0.036-0.026-0.042-0.019-0.039 0.029z"></path>
<path d="M11.672 7.713c0.013 0.036 0.010 0.046-0.016 0.029-0.023-0.013-0.039-0.010-0.039 0.010 0 0.016 0.026 0.029 0.062 0.026 0.039-0.003 0.056-0.023 0.042-0.062-0.007-0.033-0.026-0.059-0.042-0.059s-0.016 0.023-0.007 0.056z"></path>
<path d="M11.78 7.704c0 0.029 0.019 0.052 0.042 0.052 0.065 0 0.138-0.059 0.108-0.088-0.016-0.013-0.036-0.006-0.042 0.016-0.013 0.033-0.026 0.033-0.062 0.003s-0.046-0.026-0.046 0.016z"></path>
<path d="M11.976 7.69c0 0.016 0.016 0.033 0.033 0.033 0.019 0 0.033-0.016 0.033-0.033 0-0.019-0.013-0.033-0.033-0.033-0.016 0-0.033 0.013-0.033 0.033z"></path>
<path d="M10.831 7.723c0 0.023-0.023 0.033-0.049 0.019-0.026-0.010-0.049-0.003-0.049 0.013 0 0.019 0.016 0.033 0.033 0.033 0.019 0 0.033 0.019 0.029 0.039-0.010 0.085 0.003 0.124 0.049 0.124 0.026 0 0.056 0.019 0.062 0.039 0.013 0.026 0.019 0.029 0.019 0.006 0.003-0.019-0.019-0.056-0.046-0.079-0.059-0.049-0.065-0.154-0.010-0.17 0.029-0.010 0.029-0.019 0-0.039-0.023-0.013-0.039-0.006-0.039 0.013z"></path>
<path d="M11.027 7.717c0 0.019-0.026 0.042-0.056 0.049-0.052 0.013-0.052 0.016-0.003 0.019 0.059 0.003 0.111-0.052 0.079-0.085-0.010-0.013-0.019-0.003-0.019 0.016z"></path>
<path d="M11.312 7.736c-0.010 0.026 0 0.062 0.023 0.082 0.033 0.029 0.039 0.019 0.026-0.046-0.016-0.095-0.026-0.101-0.049-0.036z"></path>
<path d="M10.193 7.756c-0.010 0.016-0.003 0.033 0.013 0.033 0.019 0 0.036-0.016 0.036-0.033 0-0.019-0.007-0.033-0.013-0.033-0.010 0-0.026 0.013-0.036 0.033z"></path>
<path d="M10.619 7.756c0.010 0.016 0.026 0.033 0.036 0.033 0.007 0 0.013-0.016 0.013-0.033 0-0.019-0.016-0.033-0.036-0.033-0.016 0-0.023 0.013-0.013 0.033z"></path>
<path d="M11.404 7.756c0.010 0.016 0.026 0.033 0.036 0.033 0.007 0 0.013-0.016 0.013-0.033 0-0.019-0.016-0.033-0.036-0.033-0.016 0-0.023 0.013-0.013 0.033z"></path>
<path d="M11.518 7.753c0 0.019 0.013 0.039 0.026 0.049 0.016 0.010 0.029-0.003 0.029-0.029s-0.013-0.049-0.029-0.049c-0.013 0-0.026 0.013-0.026 0.029z"></path>
<path d="M11.944 7.811c0 0.029 0.010 0.042 0.023 0.033 0.010-0.013 0.039 0.003 0.065 0.036 0.036 0.049 0.039 0.042 0.007-0.036-0.046-0.098-0.095-0.118-0.095-0.033z"></path>
<path d="M10.072 7.861c0.016 0.016 0.052 0.026 0.075 0.019 0.026-0.010 0.010-0.023-0.033-0.036-0.056-0.013-0.069-0.010-0.042 0.016z"></path>
<path d="M11.668 7.867c0.010 0.029 0.003 0.052-0.016 0.052s-0.036-0.016-0.036-0.033c0-0.019-0.016-0.033-0.036-0.033s-0.026 0.029-0.013 0.065c0.013 0.039 0.007 0.065-0.016 0.065-0.019 0-0.026-0.016-0.016-0.033 0.010-0.019-0.003-0.033-0.029-0.033-0.075 0-0.062 0.059 0.016 0.082 0.046 0.016 0.082 0.007 0.098-0.019 0.019-0.033 0.029-0.036 0.029-0.006 0 0.023 0.026 0.042 0.059 0.042 0.039 0 0.046-0.007 0.013-0.026-0.023-0.016-0.033-0.052-0.023-0.079 0.013-0.029 0.007-0.062-0.013-0.075-0.023-0.010-0.026 0-0.016 0.029z"></path>
<path d="M10.426 7.903c0.013 0.026 0.042 0.049 0.069 0.049 0.029 0 0.042 0.019 0.033 0.042-0.010 0.026 0.003 0.046 0.023 0.046 0.023 0 0.042-0.042 0.046-0.095 0-0.049-0.010-0.092-0.026-0.092s-0.019 0.026-0.010 0.056c0.023 0.056 0.019 0.056-0.065 0-0.069-0.046-0.082-0.046-0.069-0.006z"></path>
<path d="M10.255 7.952c0.003 0.026 0.033 0.052 0.069 0.056 0.049 0.003 0.049 0 0.010-0.010-0.029-0.010-0.062-0.036-0.069-0.056-0.007-0.023-0.010-0.016-0.010 0.010z"></path>
<path d="M11.387 7.933c0 0.026-0.019 0.056-0.039 0.062-0.026 0.010-0.019 0.019 0.016 0.019 0.036 0.003 0.056-0.019 0.056-0.062 0-0.036-0.007-0.065-0.016-0.065s-0.016 0.019-0.016 0.046z"></path>
<path d="M11.76 7.939c0.010 0.029 0.019 0.059 0.019 0.065s0.036 0.013 0.079 0.013c0.049 0 0.085-0.023 0.095-0.065s0-0.065-0.029-0.065c-0.026 0-0.046 0.023-0.046 0.052 0 0.046-0.003 0.046-0.052 0-0.065-0.065-0.092-0.065-0.065 0z"></path>
<path d="M11.126 7.955c0 0.016 0.016 0.023 0.033 0.013 0.019-0.010 0.033-0.026 0.033-0.036 0-0.006-0.013-0.013-0.033-0.013-0.016 0-0.033 0.016-0.033 0.036z"></path>
<path d="M9.899 8.018l-0.098 0.026 0.108 0.003c0.056 0 0.105-0.013 0.105-0.029 0-0.019-0.003-0.029-0.007-0.029-0.007 0.003-0.052 0.016-0.108 0.029z"></path>
<path d="M10.105 8.024c0.019 0.019 0.059 0.026 0.092 0.019 0.046-0.010 0.039-0.016-0.029-0.033-0.062-0.010-0.082-0.007-0.062 0.013z"></path>
<path d="M10.766 8.018c0 0.016 0.016 0.033 0.033 0.033 0.019 0 0.033-0.016 0.033-0.033 0-0.019-0.013-0.033-0.033-0.033-0.016 0-0.033 0.013-0.033 0.033z"></path>
<path d="M15.967 7.664c0 0.029-0.026 0.072-0.056 0.088-0.033 0.019-0.042 0.033-0.026 0.033 0.072 0 0.144-0.082 0.111-0.131-0.023-0.039-0.029-0.036-0.029 0.010z"></path>
<path d="M17.332 7.687c-0.013 0.056-0.010 0.069 0.016 0.042 0.016-0.016 0.026-0.052 0.019-0.075-0.010-0.026-0.023-0.010-0.036 0.033z"></path>
<path d="M20.606 7.7c-0.046 0.085-0.003 0.111 0.059 0.036 0.026-0.033 0.042-0.042 0.029-0.019s-0.003 0.065 0.023 0.095c0.036 0.046 0.033 0.049-0.036 0.026-0.065-0.019-0.075-0.013-0.059 0.033 0.013 0.029 0.023 0.065 0.023 0.079s0.023 0.026 0.049 0.026c0.026 0 0.049-0.019 0.049-0.046 0-0.056 0.046-0.056 0.095 0.003 0.029 0.036 0.023 0.049-0.036 0.065-0.118 0.029-0.19 0.023-0.19-0.023 0-0.019-0.023-0.079-0.046-0.128-0.029-0.052-0.036-0.098-0.016-0.108 0.075-0.049 0.013-0.075-0.167-0.075-0.108 0-0.186 0.013-0.177 0.029s0 0.029-0.016 0.029c-0.019 0-0.036-0.016-0.036-0.033 0-0.019-0.016-0.033-0.036-0.033s-0.026 0.023-0.016 0.056c0.019 0.049 0.013 0.049-0.046-0.006-0.056-0.052-0.065-0.052-0.065-0.006 0 0.029 0.026 0.059 0.059 0.069 0.088 0.026 0.268 0.013 0.268-0.019 0-0.016 0.023-0.006 0.056 0.023 0.046 0.046 0.046 0.059 0.006 0.085s-0.039 0.033 0.003 0.026c0.072-0.006 0.196 0.039 0.196 0.072 0 0.016-0.023 0.029-0.052 0.029-0.042 0-0.046 0.010-0.016 0.046 0.019 0.023 0.072 0.036 0.118 0.026 0.056-0.010 0.082 0 0.082 0.029 0 0.036 0.006 0.036 0.033-0.003 0.016-0.026 0.042-0.036 0.056-0.019 0.013 0.013 0 0.042-0.033 0.065-0.029 0.023-0.056 0.069-0.056 0.098 0 0.033-0.016 0.046-0.033 0.036-0.019-0.013-0.026-0.052-0.013-0.092 0.010-0.039 0.010-0.062-0.003-0.049-0.036 0.033-0.049 0.193-0.016 0.173 0.016-0.010 0.036 0.003 0.042 0.023 0.013 0.033 0.019 0.033 0.019 0.003 0.003-0.023 0.026-0.033 0.056-0.019 0.042 0.016 0.049 0.007 0.029-0.049-0.013-0.052-0.006-0.072 0.026-0.072s0.046-0.023 0.033-0.075c-0.013-0.065-0.010-0.069 0.033-0.016 0.026 0.033 0.056 0.059 0.069 0.059 0.036 0 0.019-0.092-0.019-0.108-0.023-0.007-0.033-0.026-0.016-0.042 0.013-0.013 0.069 0.023 0.124 0.082 0.065 0.075 0.118 0.105 0.16 0.092 0.079-0.019 0.088 0.026 0.010 0.056-0.029 0.013-0.065 0.003-0.082-0.019-0.019-0.033-0.026-0.029-0.026 0.013 0 0.029-0.026 0.072-0.056 0.088-0.052 0.029-0.052 0.033 0.016 0.036 0.039 0 0.072 0.013 0.072 0.033 0 0.016 0.016 0.029 0.036 0.023 0.019-0.003 0.042 0.010 0.052 0.033 0.013 0.039-0.046 0.039-0.111 0-0.019-0.013-0.046-0.010-0.059 0.010-0.010 0.016-0.052 0.033-0.092 0.036-0.069 0-0.069 0.003-0.006 0.026 0.036 0.016 0.082 0.013 0.108-0.007 0.023-0.016 0.052-0.023 0.062-0.010 0.013 0.013 0.003 0.036-0.023 0.052-0.039 0.026-0.033 0.033 0.029 0.033 0.052 0 0.069-0.013 0.056-0.049-0.010-0.026 0-0.046 0.023-0.039 0.023 0.003 0.039-0.029 0.042-0.078 0.003-0.069-0.010-0.082-0.059-0.072-0.033 0.010-0.059 0-0.059-0.026 0-0.023 0.010-0.029 0.019-0.019 0.013 0.010 0.049 0.007 0.082-0.010 0.039-0.023 0.065-0.023 0.079 0 0.013 0.019 0.049 0.026 0.085 0.016 0.036-0.013 0.062-0.007 0.062 0.013s-0.033 0.039-0.072 0.039c-0.059 0.003-0.062 0.007-0.016 0.019 0.029 0.007 0.049 0.026 0.039 0.042s-0.039 0.023-0.065 0.010c-0.026-0.010-0.049-0.003-0.049 0.013 0 0.056 0.072 0.105 0.124 0.085 0.033-0.013 0.042-0.007 0.026 0.016-0.010 0.019-0.006 0.042 0.013 0.056 0.016 0.010 0.033 0.007 0.033-0.013s0.023-0.026 0.049-0.016c0.059 0.023 0.065-0.039 0.010-0.065-0.033-0.016-0.033-0.023 0-0.039 0.056-0.026 0.049-0.177-0.006-0.177-0.026 0-0.059-0.016-0.072-0.039-0.016-0.023-0.010-0.026 0.019-0.010 0.033 0.019 0.039 0.010 0.023-0.036-0.023-0.059-0.019-0.059 0.023-0.003 0.062 0.082 0.072 0.052 0.079-0.288 0.006-0.226 0-0.281-0.029-0.236-0.023 0.039-0.046 0.049-0.072 0.029-0.065-0.052-0.242-0.079-0.268-0.039-0.010 0.016-0.039 0.023-0.059 0.010-0.023-0.013-0.075-0.029-0.118-0.036-0.065-0.010-0.075 0-0.062 0.072 0.013 0.056 0.003 0.085-0.026 0.085-0.026 0-0.036-0.029-0.026-0.082 0.019-0.118-0.039-0.101-0.062 0.016-0.013 0.052-0.036 0.098-0.056 0.098s-0.019-0.029 0-0.082c0.016-0.042 0.016-0.088 0.003-0.098-0.059-0.036-0.206 0-0.239 0.059zM21.12 7.743c0.033 0.049 0.039 0.075 0.013 0.062-0.029-0.019-0.036-0.013-0.019 0.023 0.013 0.039 0 0.049-0.059 0.042-0.042-0.003-0.075 0.003-0.072 0.016 0.003 0.016-0.003 0.026-0.016 0.029-0.016 0.003-0.026-0.003-0.026-0.013s0-0.033 0-0.049c0-0.019 0.029-0.033 0.062-0.033 0.075 0 0.118-0.052 0.069-0.082-0.029-0.019-0.046-0.082-0.019-0.082 0.006 0 0.036 0.039 0.069 0.085zM21.182 7.71c0.010 0.026 0.006 0.039-0.013 0.029s-0.033-0.033-0.033-0.052c0-0.046 0.023-0.036 0.046 0.023zM20.482 7.769c0 0.026 0.019 0.052 0.042 0.062 0.019 0.006 0.026 0.026 0.013 0.042-0.016 0.016-0.049 0.003-0.075-0.033-0.052-0.075-0.059-0.118-0.013-0.118 0.019 0 0.033 0.019 0.033 0.046zM21.343 7.779c-0.062 0.023-0.052 0.075 0.016 0.079 0.052 0.003 0.052 0.006 0 0.019-0.033 0.006-0.082-0.006-0.108-0.036-0.042-0.042-0.042-0.049 0.010-0.062 0.075-0.019 0.131-0.023 0.082 0zM21.545 7.789c0.010 0.016 0.003 0.033-0.013 0.033-0.019 0-0.036-0.016-0.036-0.033 0-0.019 0.006-0.033 0.013-0.033 0.010 0 0.026 0.013 0.036 0.033zM21.136 7.955c0 0.029-0.101 0.069-0.121 0.049-0.010-0.010-0.010-0.029 0.003-0.046 0.019-0.033 0.118-0.039 0.118-0.003zM21.333 8.047c0 0.042-0.173 0.065-0.229 0.029-0.039-0.026-0.039-0.029 0.006-0.013 0.033 0.010 0.092 0.003 0.131-0.013 0.042-0.016 0.079-0.029 0.085-0.029 0.003-0.003 0.006 0.010 0.006 0.026zM21.561 8.381c0 0.019-0.013 0.023-0.033 0.013-0.016-0.010-0.033-0.036-0.033-0.052 0-0.019 0.016-0.023 0.033-0.013 0.019 0.010 0.033 0.036 0.033 0.052z"></path>
<path d="M16.056 7.72c-0.013 0.056-0.010 0.069 0.016 0.042 0.016-0.016 0.026-0.052 0.019-0.075-0.010-0.026-0.023-0.010-0.036 0.033z"></path>
<path d="M16.373 7.723c0.003 0.082 0.006 0.082 0.092 0.039 0.052-0.023 0.092-0.062 0.088-0.082 0-0.026-0.006-0.026-0.019 0-0.006 0.023-0.042 0.042-0.075 0.042s-0.065-0.019-0.075-0.042c-0.006-0.019-0.013-0.003-0.010 0.042z"></path>
<path d="M16.906 7.723c0.010 0.036 0.023 0.065 0.029 0.065s0.013-0.029 0.013-0.065c0-0.036-0.013-0.065-0.029-0.065s-0.023 0.029-0.013 0.065z"></path>
<path d="M17.407 7.681c0.003 0.059 0.059 0.115 0.079 0.079 0.013-0.019 0.006-0.036-0.013-0.036s-0.026-0.016-0.016-0.033c0.010-0.019 0.003-0.033-0.013-0.033-0.019 0-0.036 0.010-0.036 0.023z"></path>
<path d="M17.672 7.687c-0.026 0.016-0.029 0.036-0.010 0.049 0.016 0.010 0.039-0.003 0.052-0.029 0.019-0.056 0.019-0.059-0.042-0.019z"></path>
<path d="M17.826 7.681c0.019 0.006 0.029 0.033 0.019 0.049-0.013 0.023-0.006 0.026 0.016 0.013 0.042-0.029 0.016-0.085-0.039-0.082-0.029 0-0.026 0.006 0.003 0.019z"></path>
<path d="M18.117 7.707c-0.013 0.026-0.003 0.056 0.016 0.069 0.023 0.016 0.026 0.006 0.010-0.019-0.019-0.033-0.013-0.039 0.026-0.023 0.036 0.013 0.046 0.006 0.033-0.029-0.023-0.059-0.062-0.059-0.085 0.003z"></path>
<path d="M19.16 7.713c-0.019 0.046-0.016 0.049 0.016 0.019 0.023-0.023 0.033-0.049 0.023-0.059s-0.029 0.006-0.039 0.039z"></path>
<path d="M19.7 7.697c-0.003 0.039-0.023 0.052-0.059 0.039-0.049-0.016-0.052-0.013-0.010 0.016 0.056 0.039 0.115-0.003 0.088-0.069-0.013-0.029-0.019-0.026-0.019 0.013z"></path>
<path d="M19.821 7.681c0.019 0.006 0.059 0.006 0.082 0 0.019-0.010 0.003-0.016-0.042-0.016s-0.062 0.006-0.039 0.016z"></path>
<path d="M16.183 7.72c-0.013 0.016-0.006 0.039 0.010 0.049 0.016 0.013 0.039 0.006 0.049-0.010 0.013-0.016 0.006-0.039-0.010-0.049-0.016-0.013-0.039-0.006-0.049 0.010z"></path>
<path d="M16.301 7.756c0 0.046 0.006 0.062 0.016 0.039 0.006-0.019 0.006-0.059 0-0.082-0.010-0.019-0.016-0.003-0.016 0.042z"></path>
<path d="M18.267 7.772c0 0.046 0.006 0.088 0.019 0.095 0.010 0.006 0.019-0.029 0.019-0.082 0.003-0.052-0.006-0.095-0.019-0.095-0.010 0-0.019 0.036-0.019 0.082z"></path>
<path d="M18.375 7.713c-0.042 0.042-0.016 0.095 0.046 0.095 0.036 0 0.065-0.006 0.065-0.013 0-0.029-0.092-0.098-0.111-0.082z"></path>
<path d="M17.75 7.756c0.010 0.016 0.026 0.033 0.036 0.033 0.006 0 0.013-0.016 0.013-0.033 0-0.019-0.016-0.033-0.036-0.033-0.016 0-0.023 0.013-0.013 0.033z"></path>
<path d="M18.535 7.756c0.010 0.016 0.026 0.033 0.036 0.033 0.006 0 0.013-0.016 0.013-0.033 0-0.019-0.016-0.033-0.036-0.033-0.016 0-0.023 0.013-0.013 0.033z"></path>
<path d="M19.353 7.756c0.010 0.016 0.026 0.033 0.036 0.033 0.006 0 0.013-0.016 0.013-0.033 0-0.019-0.016-0.033-0.036-0.033-0.016 0-0.023 0.013-0.013 0.033z"></path>
<path d="M17.897 7.769c0 0.006 0.023 0.023 0.052 0.033 0.026 0.010 0.039 0.006 0.029-0.013-0.019-0.033-0.082-0.046-0.082-0.019z"></path>
<path d="M18.617 7.769c0 0.006 0.026 0.033 0.059 0.056 0.049 0.042 0.052 0.039 0.010-0.013s-0.069-0.069-0.069-0.042z"></path>
<path d="M19.749 7.808c-0.013 0.029-0.013 0.062-0.003 0.072s0.016 0 0.016-0.019c0-0.023 0.023-0.039 0.052-0.039 0.026 0 0.039-0.016 0.029-0.033-0.029-0.049-0.072-0.039-0.095 0.019z"></path>
<path d="M19.959 7.801c0 0.006 0.023 0.023 0.052 0.033 0.026 0.010 0.039 0.006 0.029-0.013-0.019-0.033-0.082-0.046-0.082-0.019z"></path>
<path d="M18.084 7.857c0.023 0.023 0.049 0.033 0.059 0.023s-0.006-0.029-0.039-0.039c-0.046-0.019-0.049-0.016-0.019 0.016z"></path>
<path d="M19.065 7.851c0.019 0.023 0.029 0.065 0.019 0.088-0.010 0.026-0.010 0.046 0 0.046 0.046 0 0.046-0.098-0.003-0.134-0.046-0.036-0.049-0.036-0.016 0z"></path>
<path d="M20.155 7.854c-0.065 0.016-0.069 0.023-0.029 0.039 0.029 0.013 0.069 0.006 0.085-0.010s0.029-0.003 0.029 0.033c0 0.036-0.013 0.059-0.023 0.049-0.013-0.006-0.033 0-0.046 0.019-0.010 0.016-0.036 0.033-0.056 0.033-0.023 0-0.019-0.019 0.006-0.049 0.059-0.072 0.010-0.059-0.065 0.016-0.065 0.065-0.065 0.065 0.092 0.049 0.141-0.013 0.147-0.010 0.092 0.033-0.036 0.026-0.095 0.049-0.131 0.049-0.056 0.003-0.059 0.007-0.019 0.029 0.075 0.042 0.295 0.069 0.295 0.036 0-0.016-0.033-0.033-0.072-0.039-0.065-0.010-0.069-0.013-0.016-0.065 0.062-0.059 0.075-0.108 0.023-0.075-0.016 0.010-0.033 0.003-0.033-0.013 0-0.062 0.059-0.039 0.144 0.052 0.069 0.075 0.075 0.095 0.036 0.118-0.069 0.036-0.062 0.072 0.016 0.079 0.036 0.003 0.082-0.023 0.098-0.059 0.019-0.036 0.023-0.059 0.006-0.056-0.042 0.013-0.173-0.138-0.151-0.173 0.010-0.016-0.019-0.029-0.065-0.029-0.056 0-0.078-0.013-0.065-0.042 0.016-0.049-0.023-0.056-0.151-0.023z"></path>
<path d="M15.673 7.949c-0.046 0.092-0.039 0.118 0.016 0.069 0.039-0.033 0.049-0.033 0.049 0.003 0 0.033 0.013 0.029 0.052-0.010 0.059-0.056 0.036-0.124-0.036-0.124-0.026 0-0.062 0.029-0.082 0.062zM15.804 7.952c0 0.016-0.013 0.033-0.033 0.033-0.016 0-0.033-0.016-0.033-0.033 0-0.019 0.016-0.033 0.033-0.033 0.019 0 0.033 0.013 0.033 0.033z"></path>
<path d="M19.658 7.926c0.016 0.016 0.052 0.026 0.075 0.019 0.026-0.010 0.010-0.023-0.033-0.036-0.056-0.013-0.069-0.010-0.042 0.016z"></path>
<path d="M16.098 7.943c0 0.019 0.026 0.056 0.059 0.079 0.052 0.042 0.052 0.042 0.006-0.019-0.026-0.036-0.052-0.072-0.056-0.078-0.006-0.006-0.010 0-0.010 0.019z"></path>
<path d="M15.892 7.975c-0.046 0.042-0.019 0.075 0.059 0.075 0.046 0 0.082-0.013 0.082-0.029s-0.033-0.023-0.072-0.010c-0.046 0.010-0.062 0.007-0.046-0.019 0.026-0.042 0.010-0.052-0.023-0.016z"></path>
<path d="M16.242 8.021c-0.010 0.016 0.019 0.029 0.065 0.029 0.101 0 0.111-0.019 0.019-0.042-0.036-0.010-0.075-0.003-0.085 0.013z"></path>
<path d="M16.69 8.037c0 0.036 0.010 0.046 0.019 0.019 0.010-0.023 0.006-0.052-0.003-0.062-0.010-0.013-0.019 0.007-0.016 0.042z"></path>
<path d="M17.099 8.027c0.010 0.033 0.029 0.049 0.039 0.039s0-0.036-0.023-0.059c-0.033-0.029-0.036-0.026-0.016 0.019z"></path>
<path d="M20.367 8.116c0.010 0.016 0.036 0.033 0.052 0.033 0.019 0 0.023-0.016 0.013-0.033-0.010-0.019-0.036-0.033-0.052-0.033-0.019 0-0.023 0.013-0.013 0.033z"></path>
<path d="M20.976 8.178c-0.052 0.033-0.019 0.101 0.049 0.101 0.052 0 0.059-0.029 0.019-0.088-0.013-0.023-0.042-0.029-0.069-0.013z"></path>
<path d="M21.234 8.544c0 0.019 0.029 0.042 0.069 0.052 0.039 0.013 0.059 0.036 0.049 0.065-0.010 0.026-0.003 0.036 0.013 0.026 0.065-0.039 0.105 0.023 0.042 0.069-0.049 0.036-0.052 0.049-0.013 0.075 0.026 0.016 0.069 0.023 0.095 0.010 0.042-0.013 0.039-0.023-0.013-0.042-0.056-0.019-0.056-0.023-0.006-0.046 0.029-0.013 0.072-0.013 0.092 0s0.033-0.010 0.033-0.056c0-0.059-0.006-0.065-0.029-0.029-0.026 0.039-0.049 0.036-0.147-0.033-0.065-0.042-0.118-0.088-0.118-0.105 0-0.013-0.013-0.023-0.033-0.023-0.016 0-0.033 0.016-0.033 0.036z"></path>
<path d="M21.176 8.646c0.006 0.019 0.046 0.059 0.085 0.085 0.065 0.042 0.072 0.042 0.052-0.007-0.010-0.029-0.042-0.052-0.069-0.052s-0.036-0.016-0.026-0.033c0.010-0.019 0.003-0.033-0.016-0.033-0.023 0-0.033 0.016-0.026 0.039z"></path>
<path d="M10.959 17.528c-0.042 0.052-0.039 0.056 0.013 0.013 0.029-0.023 0.056-0.049 0.056-0.056 0-0.026-0.026-0.010-0.069 0.042z"></path>
<path d="M10.586 17.848c-0.363 0.311-0.415 0.379-0.258 0.35 0.062-0.010 0.072-0.023 0.042-0.042-0.039-0.023-0.036-0.033 0-0.069 0.033-0.033 0.039-0.033 0.023-0.003-0.013 0.023-0.007 0.042 0.010 0.042 0.019 0 0.036-0.016 0.036-0.033 0-0.019 0.075-0.108 0.167-0.196 0.19-0.186 0.177-0.219-0.019-0.049z"></path>
<path d="M17.080 18.885c-0.134 0.010-0.429 0.013-0.651 0.003-0.327-0.013-0.399-0.006-0.389 0.029 0.019 0.052 0.789 0.079 0.965 0.029 0.065-0.019 0.134-0.023 0.154-0.013 0.056 0.036 0.183 0.029 0.183-0.006 0-0.016 0.013-0.013 0.029 0.013 0.016 0.023 0.036 0.029 0.046 0.013s0.095-0.019 0.193-0.010c0.095 0.010 0.386 0.006 0.648-0.006s0.7-0.019 0.975-0.013c0.272 0.006 0.497 0 0.497-0.016 0-0.033-2.3-0.056-2.65-0.023z"></path>
<path d="M22.216 17.26c-0.023 0.029-0.036 0.056-0.029 0.065 0.010 0.006 0.033-0.016 0.056-0.049 0.046-0.079 0.033-0.085-0.026-0.016z"></path>
<path d="M21.722 17.757c-0.042 0.052-0.039 0.056 0.013 0.013s0.069-0.069 0.042-0.069c-0.006 0-0.033 0.026-0.056 0.056z"></path>
<path d="M14.734 18.885c-0.007 0.016 0.010 0.026 0.036 0.026 0.029 0 0.052 0.019 0.052 0.039 0 0.033 0.010 0.029 0.029-0.003 0.023-0.036 0.029-0.036 0.046 0 0.010 0.026 0.019 0.029 0.019 0.010 0.003-0.026 0.039-0.029 0.124-0.010 0.082 0.016 0.131 0.013 0.144-0.010 0.013-0.019 0.039-0.023 0.059-0.013 0.019 0.013 0.036 0.010 0.036-0.010 0-0.036-0.523-0.065-0.546-0.029z"></path>
<path d="M12.078 18.895c0.023 0.023 1.145 0.026 1.168 0.003 0.010-0.010-0.252-0.019-0.582-0.019s-0.592 0.006-0.586 0.016z"></path>
<path d="M13.507 18.902c0.023 0.010 0.052 0.006 0.062-0.003 0.013-0.010-0.007-0.019-0.042-0.016-0.036 0-0.046 0.010-0.019 0.019z"></path>
<path d="M13.776 18.912c0 0.016 0.046 0.023 0.108 0.010 0.147-0.026 0.154-0.042 0.013-0.042-0.065 0-0.121 0.013-0.121 0.033z"></path>
<path d="M22.622 18.941c-0.105 0.065-0.209 0.268-0.209 0.415 0 0.128 0.079 0.288 0.193 0.383 0.088 0.072 0.138 0.088 0.281 0.088 0.154 0 0.193-0.013 0.298-0.105 0.301-0.265 0.239-0.599-0.141-0.792-0.138-0.069-0.298-0.065-0.422 0.010z"></path>
<path d="M8.197 20.547c-0.010 0.019 0.003 0.023 0.029 0.013 0.059-0.023 0.069-0.046 0.023-0.046-0.019 0-0.042 0.013-0.052 0.033z"></path>
<path d="M8.011 20.57c0.019 0.006 0.059 0.006 0.082 0 0.019-0.010 0.003-0.016-0.042-0.016s-0.062 0.006-0.039 0.016z"></path>
<path d="M18.408 22.294c-0.029 0.069-0.052 0.131-0.052 0.138s0.052 0.013 0.115 0.013c0.134 0 0.154-0.075 0.052-0.199l-0.062-0.079-0.052 0.128z"></path>
<path d="M17.184 22.321l0.010 0.239 0.098-0.013c0.193-0.019 0.295-0.141 0.255-0.295-0.019-0.082-0.167-0.167-0.288-0.167-0.085 0-0.085 0-0.075 0.236z"></path>
<path d="M19.425 22.108c-0.013 0.010-0.023 0.056-0.023 0.098 0 0.069 0.013 0.075 0.164 0.075 0.186 0 0.255-0.072 0.147-0.151-0.065-0.049-0.252-0.062-0.288-0.023z"></path>
<path d="M8.263 24.143v0.592l0.213-0.019c0.304-0.026 0.343-0.036 0.458-0.131 0.213-0.183 0.268-0.484 0.128-0.733-0.111-0.196-0.252-0.272-0.55-0.288l-0.249-0.013v0.592z"></path>
<path d="M17.286 23.672c-0.056 0.046-0.128 0.147-0.157 0.229-0.147 0.379 0.128 0.769 0.543 0.769 0.108 0 0.154-0.019 0.242-0.108 0.19-0.19 0.222-0.497 0.085-0.772-0.079-0.151-0.183-0.199-0.422-0.199-0.151 0-0.206 0.016-0.291 0.082z"></path>
<path d="M19.219 23.855c0.013 0.151 0.033 0.281 0.042 0.291 0.006 0.010 0.124 0.016 0.258 0.016 0.219 0 0.249-0.010 0.331-0.088 0.115-0.115 0.121-0.291 0.016-0.396-0.062-0.062-0.118-0.075-0.373-0.085l-0.298-0.010 0.023 0.272z"></path>
<path d="M23.093 23.848l0.010 0.298h0.295c0.399 0 0.517-0.069 0.52-0.298 0-0.085-0.023-0.138-0.085-0.196-0.075-0.072-0.118-0.079-0.415-0.088l-0.334-0.013 0.010 0.298z"></path>
</symbol>
</defs>
</svg>
